# xmcd
#
# Track frame offsets:
# 150
# 8100
# 19612
# 40925
# 54737
# 69837
# 88575
# 109275
# 122450
# 139325
# 169762
# 180200
# 192962
# 216025
# 227925
# 241637
# 258512
#
# Disc length: 3753 seconds
#
#
# Revision: 0
# Processed by: cddbd v1.4PL0 Copyright (c) Steve Scherf et al.
# Submitted via: FreeRIP 2.51 
#
DISCID=dd0ea711
DTITLE=The King Bees - Take That Honey
DYEAR=2000
DGENRE=Blues
TTITLE0=Take that honey
TTITLE1=Polly Ann
TTITLE2=Please me
TTITLE3=Quit my job
TTITLE4=Get out of my way
TTITLE5=Blues ain't nothing
TTITLE6=You're so fine
TTITLE7=Sugar and spice
TTITLE8=It's too late
TTITLE9=People think i'm lazy
TTITLE10=Bee's Boogie
TTITLE11=Walk on
TTITLE12=Scanty love
TTITLE13=Who's been talking
TTITLE14=Sittin' here crying
TTITLE15=Hello little schoolgirl
TTITLE16=Catfish Blues
EXTD=
EXTT0=
EXTT1=
EXTT2=
EXTT3=
EXTT4=
EXTT5=
EXTT6=
EXTT7=
EXTT8=
EXTT9=
EXTT10=
EXTT11=
EXTT12=
EXTT13=
EXTT14=
EXTT15=
EXTT16=
PLAYORDER=
